<svg width="575" height="710" viewBox="0 0 575 710" fill="none" xmlns="http://www.w3.org/2000/svg">
<path d="M220.56 447.427C234.315 425.353 251.336 405.484 271.044 388.5C273.7 385.833 275.336 382.323 275.669 378.578C277.231 363.057 277.013 347.286 279.533 331.948C285.393 296.297 304.351 271.145 341.664 261.494C343.82 265.025 346.393 269.249 348.987 273.447C360.117 291.469 371.627 309.259 382.238 327.587H382.243C386.087 335.332 394.863 339.29 403.212 337.04C401.978 328.186 401.207 319.275 400.895 310.338C400.874 294.504 401.702 278.687 403.384 262.942C403.978 257.088 406.582 251.619 410.744 247.463C414.905 243.307 420.379 240.713 426.233 240.119C462.29 233.713 496.795 220.479 527.889 201.13C549.195 187.037 566.701 169.551 572.061 143.417V143.422C572.946 134.786 573.217 126.094 572.863 117.422C574.165 109.266 574.821 101.02 574.832 92.7604C573.097 76.9631 566.29 72.1871 550.16 72.5938V72.599C535.466 74.0469 520.67 74.1146 505.966 72.7969C490.57 69.1511 475.518 64.2032 460.972 57.9942C459.336 57.2495 458.086 55.8536 457.524 54.1453C453.144 38.0413 440.759 32.0826 426.045 30.6293C416.665 30.1501 407.743 26.4001 400.832 20.0304C384.535 5.17038 363.801 1.29571 342.514 0.754377H342.52C317.05 -0.0685432 291.618 3.26998 267.228 10.6398C216.853 26.1505 190.301 62.2798 180.588 112.509C179.234 119.514 178.728 126.692 177.51 133.723V133.717C176.275 138.665 178.577 143.811 183.088 146.191C204.5 159.374 221.005 179.222 230.061 202.681C231.91 208.368 235.29 213.441 239.827 217.337C244.368 221.233 249.889 223.811 255.791 224.779C276.395 231.035 298.155 232.514 319.411 229.102C323.317 228.373 327.155 227.363 330.911 226.071C354.067 218.378 359.853 210.779 358.312 186.602C354.739 138.7 336.271 93.1124 305.489 56.2377C303.927 54.2689 302.609 52.1022 301.182 50.0189C301.713 49.5397 302.239 49.0449 302.771 48.5658C303.968 49.1335 305.088 49.8575 306.104 50.7065C340.787 86.9878 362.891 133.446 369.161 183.242C369.791 189.836 369.901 196.466 369.495 203.076C369.239 211.946 364.89 220.201 357.713 225.42C343.615 236.383 326.547 242.857 308.729 243.999C284.901 246.124 260.901 242.769 238.568 234.196C228.657 230.946 221.032 222.946 218.256 212.89C211.449 191.296 196.283 175.587 177.261 160.952H177.267C177.043 165.645 177.063 170.353 177.324 175.046C184.022 234.348 161.553 283.182 123.61 326.739H123.616C76.0063 381.198 34.6517 440.818 0.318359 504.486C43.2824 554.642 94.7037 596.871 152.252 629.256C153.21 624.564 154.127 619.866 155.168 615.194C167.017 555.887 189.147 499.111 220.564 447.42L220.56 447.427ZM410.773 93.52C415.831 93.52 420.383 96.5616 422.32 101.234C424.252 105.9 423.185 111.275 419.612 114.848C416.039 118.426 410.664 119.494 405.992 117.557C401.325 115.624 398.278 111.067 398.278 106.015C398.283 99.1139 403.872 93.5202 410.773 93.5202L410.773 93.52Z" fill="#EC7C15"/>
<path d="M392.92 609.64C387.92 581.176 396.217 564.484 422.837 553.145H422.832C434.644 548.547 446.791 544.875 459.176 542.166C463.337 541.739 467.54 542.14 471.546 543.349C490.234 546.661 498.739 541.208 503.415 522.901H503.42C503.769 520.567 504.79 518.385 506.358 516.619C519.926 505.552 519.222 488.109 525.415 473.791C526.571 471.13 523.863 465.604 521.342 462.849C517.748 459.328 513.561 456.474 508.967 454.416C496.519 448.156 486.967 437.334 482.295 424.208C477.238 411.146 471.67 398.255 466.831 385.11C465.102 379.776 461.93 375.026 457.67 371.386C453.409 367.745 448.227 365.355 442.691 364.474C425.8 361.313 408.8 358.552 391.738 356.62C382.113 356.167 373.404 350.782 368.691 342.38C358.425 325.083 347.456 308.208 336.759 291.156C335.665 289.422 334.457 287.76 333.066 285.729V285.724C318.509 291.141 307.525 303.333 303.654 318.375C298.998 335.979 296.373 354.057 295.826 372.255C296.581 386.312 290.326 399.833 279.118 408.348C247.321 434.791 227.192 470.135 210.597 507.463C192.253 549.645 178.597 593.713 169.884 638.879C249.482 680.275 336.884 704.504 426.444 709.993C425.412 707.248 424.506 704.634 423.428 702.129C409.731 672.577 399.496 641.541 392.923 609.639L392.92 609.64ZM425.076 411.36H425.071C430.128 411.36 434.685 414.407 436.618 419.074C438.55 423.746 437.482 429.121 433.909 432.694C430.336 436.267 424.961 437.334 420.289 435.402C415.623 433.47 412.576 428.912 412.576 423.855C412.576 420.543 413.893 417.365 416.237 415.022C418.581 412.678 421.758 411.36 425.07 411.36L425.076 411.36Z" fill="#F5A09D"/>
</svg>
